<?xml version="1.0" encoding="UTF-8"?>
<svg id="_Слой_1" data-name=" Слой 1" xmlns="http://www.w3.org/2000/svg" viewBox="0 0 784.81 963.89">
  <defs>
    <style>
      .cls-1 {
        fill: #fff;
        stroke: #fff;
        stroke-miterlimit: 10;
        stroke-width: 2px;
      }
    </style>
  </defs>
  <path class="cls-1" d="m312.92,65.33l-13.59-55.88c-.31-1.29.35-2.61,1.57-3.12l12.06-5.12c1.18-.5,2.54-.07,3.21,1.02l31.02,49.96-34.28,13.14h.01Z"/>
  <polygon class="cls-1" points="510.64 426.33 352.84 63.24 317.46 77 475.86 439.69 510.64 426.33"/>
  <path class="cls-1" d="m395.1,254.77l-110.31,208.58c-3.25,6.14-10.51,8.95-17.04,6.6l-37.15-13.39c-3.82-1.37-8.04-1.02-11.57.97l-8.09,4.57c-3.5,1.97-5.98,5.36-6.8,9.3l-2.59,12.43c-.67,3.21-2.45,6.08-5.02,8.11l-16.74,13.18c-1.56,1.23-2.84,2.78-3.75,4.54L2.56,844.5c-1.03,1.98-1.56,4.18-1.56,6.41v26.4c0,1.1.13,2.2.39,3.27l5.05,20.9c.92,3.81,3.41,7.06,6.85,8.95l82.87,45.44c2.05,1.13,4.36,1.72,6.7,1.72h39.02c3.57,0,7.01-1.37,9.6-3.84l31.57-30.01c1.16-1.1,2.11-2.39,2.83-3.81l172.21-340.45c1.68-3.32,1.96-7.17.79-10.7h0c-1.8-5.39-.16-11.33,4.18-15.01,6.84-5.8,15.96-14.63,15.35-19.99-1.34-11.67-26.94-26.11-43.01-34.08-6.98-3.46-9.8-11.94-6.23-18.88l89.08-173.1"/>
  <polyline class="cls-1" points="438.44 260.19 487.61 165.45 516.72 142.23 561.32 34.98 512.06 17.05 481.59 67.66 458.98 100.58 448.17 145.3 416.32 209.3"/>
  <polygon class="cls-1" points="555.79 422.7 441.91 466.56 444.49 476.51 423.11 483.14 438.22 520.36 598.17 460.29 582.69 422.7 559.84 430.07 555.79 422.7"/>
  <path class="cls-1" d="m459.25,531.31l11.35,4.83c1.21.52,2.58.55,3.81.08l109.36-40.97c1.18-.44,2.1-1.38,2.52-2.57l4.4-12.46c.62-1.75-1.11-3.42-2.83-2.74l-128.56,50.46c-1.51.59-1.54,2.72-.05,3.35v.02Z"/>
  <path class="cls-1" d="m481.73,555.48l6.33,15.95c.43,1.08.62,2.24.56,3.4l-2.79,51.21c-.04.8.03,1.61.23,2.39l2.5,9.99c.11.42.24.83.42,1.23l128.2,297.54c.82,1.9,2.34,3.41,4.25,4.22l3.62,1.53c1.92.81,4.08.85,6.02.1l142.93-55.08c3.1-1.19,5.15-4.17,5.15-7.5v-11.23c0-1.11-.23-2.2-.67-3.22l-127.61-292.04c-.47-1.08-1.17-2.04-2.05-2.81l-32.57-28.67-14.29-13.61c-.78-.75-1.41-1.64-1.84-2.64l-6.58-15.29c-1.72-3.99-6.3-5.89-10.34-4.29l-96.94,38.39c-4.13,1.63-6.15,6.31-4.51,10.43h-.02Z"/>
  <path class="cls-1" d="m637.04,954.64l144.92-55.42c1.22-.47,2.34.88,1.63,1.97-4.22,6.49-13.44,20.3-18.33,24.72-12.37,11.18-43.51,25.49-59.48,30.47-11.31,3.53-35.23,7.61-47,6.24-4.98-.58-17.48-5.22-21.76-6.84-.53-.2-.5-.93.02-1.13h0Z"/>
</svg>